<svg xmlns="http://www.w3.org/2000/svg" xmlns:xlink="http://www.w3.org/1999/xlink" id="Layer_1" x="0" y="0" enable-background="new 0 60 1000 880" version="1.1" viewBox="0 60 1000 880" xml:space="preserve"><rect width="1015.5" height="909" x=".8" y="45.5" fill="#FBF3EE"/><rect width="251.9" height="40.3" x="196.2" y="93.8" fill="none" stroke="#010101" stroke-miterlimit="10" stroke-width=".75"/><rect width="504.3" height="40.3" x="448" y="93.8" fill="#FFF" stroke="#181718" stroke-miterlimit="10" stroke-width=".75"/><rect width="504.3" height="100.9" x="448" y="172.3" fill="#FFF" stroke="#181718" stroke-miterlimit="10" stroke-width=".75"/><rect width="504.3" height="136.9" x="448" y="312.2" fill="#FFF" stroke="#181718" stroke-miterlimit="10" stroke-width=".75"/><rect width="504.5" height="137" x="447.8" y="587.6" fill="#FFF" stroke="#181718" stroke-miterlimit="10" stroke-width=".75"/><rect width="200.3" height="909.2" x="-15.6" y="45.5" fill="#F3725D"/><rect width="251.9" height="136.9" x="196.2" y="312.2" fill="none" stroke="#010101" stroke-miterlimit="10" stroke-width=".75"/><rect width="251.9" height="137.1" x="196.2" y="587.6" fill="none" stroke="#010101" stroke-miterlimit="10" stroke-width=".75"/><rect width="251.9" height="119.2" x="196.2" y="794.4" fill="none" stroke="#010101" stroke-miterlimit="10" stroke-width=".75"/><rect width="252.5" height="119.2" x="458.9" y="794.4" fill="none" stroke="#010101" stroke-miterlimit="10" stroke-width=".75"/><rect width="251.8" height="119.2" x="722.7" y="794.4" fill="none" stroke="#010101" stroke-miterlimit="10" stroke-width=".75"/><rect width="90.8" height="40.3" x="195.3" y="102.6" fill="none"/><text fill="#010101" font-family="'Lato-Bold'" font-size="27.45" transform="matrix(1 0 0 1 214.5229 123.0693)">URL</text><rect width="113" height="110.5" x="216.5" y="192.5" fill="none"/><text fill="#010101" font-family="'Lato-Bold'" font-size="27.45" transform="matrix(1 0 0 1 216.5489 213.064)">Router</text><text fill="#010101" font-family="'Lato-Italic'" font-size="24.019" transform="matrix(1 0 0 1 216.5489 241.9023)">router.js</text><rect width="193.4" height="110.5" x="215" y="329.5" fill="none"/><text fill="#010101" font-family="'Lato-Bold'" font-size="27.45" transform="matrix(1 0 0 1 215.042 349.9639)">Route</text><text fill="#010101" font-family="'Lato-Bold'" font-size="27.45" transform="matrix(1 0 0 1 215.042 382.8916)">Handler</text><text fill="#010101" font-family="'Lato-Italic'" font-size="24.019" transform="matrix(1 0 0 1 215.042 411.7251)">routes/rentals.js</text><rect width="223.9" height="80.5" x="215.5" y="613.9" fill="none"/><text fill="#010101" font-family="'Lato-Bold'" font-size="27.45" transform="matrix(1 0 0 1 215.5386 634.2461)">Template</text><text fill="#010101" font-family="'Lato-Italic'" font-size="24.019" transform="matrix(1 0 0 1 215.5386 663.0801)">templates/rentals.hbs</text><rect width="251.9" height="100.9" x="196.2" y="172.3" fill="none" stroke="#231F20" stroke-miterlimit="10" stroke-width=".75"/><g><line x1="414.6" x2="455.5" y1="449.1" y2="490.1" fill="none"/><g><line x1="414.6" x2="450.5" y1="449.1" y2="485.1" fill="none" stroke="#010101" stroke-miterlimit="10" stroke-width=".75"/><g><polygon fill="#010101" points="455.5 478.6 444.3 490.2 455.5 490.1"/></g></g></g><g><line x1="258.4" x2="258.4" y1="449" y2="586.6" fill="none"/><g><line x1="258.4" x2="258.4" y1="449" y2="579.8" fill="none" stroke="#010101" stroke-miterlimit="10" stroke-width=".75"/><g><polygon fill="#010101" points="266.3 578.6 250.3 578.6 258.4 586.6"/></g></g></g><rect width="308.5" height="27.1" x="476" y="106.9" fill="none"/><text fill="#010101" font-family="'Menlo-Regular'" font-size="16.439" transform="matrix(1 0 0 1 475.9756 119.4648)">http://localhost:4200/rentals</text><rect width="295.3" height="80.5" x="477.7" y="192.1" fill="none"/><text fill="#010101" font-family="'Menlo-Regular'" font-size="17.61" transform="matrix(1 0 0 1 477.7867 205.5352)">Router.map(</text><text fill="#9B5535" font-family="'Menlo-Regular'" font-size="17.61" transform="matrix(1 0 0 1 592.4776 205.5352)">function</text><text fill="#4973B8" font-family="'Menlo-Regular'" font-size="17.61" transform="matrix(1 0 0 1 675.9083 205.5352)">()</text><text fill="#4973B8" font-family="'Menlo-Regular'" font-size="17.61" transform="matrix(1 0 0 1 707.1631 205.5352)">{</text><text fill="#9B5535" font-family="'Menlo-Regular'" font-size="17.61" transform="matrix(1 0 0 1 498.6568 226.668)">this</text><text fill="#010101" font-family="'Menlo-Regular'" font-size="17.61" transform="matrix(1 0 0 1 540.3487 226.668)">.route</text><text fill="#010101" font-family="'Menlo-Regular'" font-size="17.61" transform="matrix(1 0 0 1 602.9111 226.668)">(</text><text fill="#446CB1" font-family="'Menlo-Regular'" font-size="17.61" transform="matrix(1 0 0 1 611.7568 226.668)">&apos;rentals&apos;</text><text fill="#010101" font-family="'Menlo-Regular'" font-size="17.61" transform="matrix(1 0 0 1 705.5811 226.668)">);</text><text fill="#010101" font-family="'Menlo-Regular'" font-size="17.61" transform="matrix(1 0 0 1 477.7867 247.8047)">});</text><rect width="483.8" height="107.2" x="473.6" y="329.7" fill="none"/><text fill="#9B5535" font-family="'Menlo-Regular'" font-size="17.61" transform="matrix(1 0 0 1 473.6353 343.0884)">export default</text><text fill="#010101" font-family="'Menlo-Regular'" font-size="17.61" transform="matrix(1 0 0 1 619.582 343.0884)">Ember.Route.extend({</text><text fill="#010101" font-family="'Menlo-Regular'" font-size="17.61" transform="matrix(1 0 0 1 473.6353 364.2271)">model() {</text><text fill="#9B5535" font-family="'Menlo-Regular'" font-size="17.61" transform="matrix(1 0 0 1 515.3242 385.356)">return</text><text fill="#9B5535" font-family="'Menlo-Regular'" font-size="17.61" transform="matrix(1 0 0 1 588.3154 385.356)">this</text><text fill="#010101" font-family="'Menlo-Regular'" font-size="17.61" transform="matrix(1 0 0 1 630.006 385.356)">.store.findAll(</text><text fill="#446CB1" font-family="'Menlo-Regular'" font-size="17.61" transform="matrix(1 0 0 1 786.4375 385.356)">&apos;rental&apos;</text><text fill="#010101" font-family="'Menlo-Regular'" font-size="17.61" transform="matrix(1 0 0 1 869.8165 385.356)">);</text><text fill="#010101" font-family="'Menlo-Regular'" font-size="17.61" transform="matrix(1 0 0 1 473.6353 406.4907)">}</text><text fill="#010101" font-family="'Menlo-Regular'" font-size="17.61" transform="matrix(1 0 0 1 473.6353 427.6235)">});</text><rect width="423" height="112.5" x="474.1" y="604.7" fill="none"/><text fill="#446CB1" font-family="'Menlo-Regular'" font-size="17.61" transform="matrix(1 0 0 1 474.0191 618.0869)">&lt;</text><text fill="#3997D1" font-family="'Menlo-Regular'" font-size="17.61" transform="matrix(1 0 0 1 484.4541 618.0869)">ul</text><text fill="#446CB1" font-family="'Menlo-Regular'" font-size="17.61" transform="matrix(1 0 0 1 505.2745 618.0869)">&gt;</text><text fill="#3A3B3B" font-family="'Menlo-Regular'" font-size="17.61" transform="matrix(1 0 0 1 494.8853 639.2109)">{{#</text><text fill="#BD993C" font-family="'Menlo-Regular'" font-size="17.61" transform="matrix(1 0 0 1 526.1426 639.2109)">each model as</text><text fill="#686969" font-family="'Menlo-Regular'" font-size="17.61" transform="matrix(1 0 0 1 672.1367 639.2109)">|</text><text fill="#BD993C" font-family="'Menlo-Regular'" font-size="17.61" transform="matrix(1 0 0 1 682.5234 639.2109)">rental-unit</text><text fill="#686969" font-family="'Menlo-Regular'" font-size="17.61" transform="matrix(1 0 0 1 797.213 639.2109)">|}}</text><text fill="#3A3B3B" font-family="'Menlo-Regular'" font-size="17.61" transform="matrix(1 0 0 1 515.713 660.3477)">{{</text><text fill="#BD993C" font-family="'Menlo-Regular'" font-size="17.61" transform="matrix(1 0 0 1 536.5792 660.3477)">rental-tile</text><text fill="#BD993C" font-family="'Menlo-Regular'" font-size="17.61" transform="matrix(1 0 0 1 661.6953 660.3477)">rental</text><text fill="#446CB1" font-family="'Menlo-Regular'" font-size="17.61" transform="matrix(1 0 0 1 724.2607 660.3477)">=</text><text fill="#BD993C" font-family="'Menlo-Regular'" font-size="17.61" transform="matrix(1 0 0 1 734.6895 660.3477)">rental-unit</text><text fill="#686969" font-family="'Menlo-Regular'" font-size="17.61" transform="matrix(1 0 0 1 849.3809 660.3477)">}}</text><text fill="#3A3B3B" font-family="'Menlo-Regular'" font-size="17.61" transform="matrix(1 0 0 1 494.8853 681.4805)">{{/</text><text fill="#BD993C" font-family="'Menlo-Regular'" font-size="17.61" transform="matrix(1 0 0 1 526.1426 681.4805)">each</text><text fill="#686969" font-family="'Menlo-Regular'" font-size="17.61" transform="matrix(1 0 0 1 567.8359 681.4805)">}}</text><text fill="#446CB1" font-family="'Menlo-Regular'" font-size="17.61" transform="matrix(1 0 0 1 474.0191 702.6133)">&lt;/</text><text fill="#3997D1" font-family="'Menlo-Regular'" font-size="17.61" transform="matrix(1 0 0 1 494.8853 702.6133)">ul</text><text fill="#446CB1" font-family="'Menlo-Regular'" font-size="17.61" transform="matrix(1 0 0 1 515.713 702.6133)">&gt;</text><g><line x1="258.4" x2="258.4" y1="273.1" y2="311" fill="none"/><g><line x1="258.4" x2="258.4" y1="273.1" y2="304.2" fill="none" stroke="#010101" stroke-miterlimit="10" stroke-width=".75"/><g><polygon fill="#010101" points="266.3 303 250.3 303 258.4 311"/></g></g></g><rect width="156.2" height="84.9" x="17.4" y="179.1" fill="none"/><text fill="#FFF" font-family="'Lato-BoldItalic'" font-size="26.416" transform="matrix(1 0 0 1 17.4136 198.708)">Maps:</text><text fill="#FFF" font-family="'Lato-Italic'" font-size="26.416" transform="matrix(1 0 0 1 17.4136 230.4077)">-URL to</text><text fill="#FFF" font-family="'Lato-Italic'" font-size="26.416" transform="matrix(1 0 0 1 17.4136 262.103)">a router</text><rect width="156.2" height="102.1" x="16.7" y="317.8" fill="none"/><text fill="#FFF" font-family="'Lato-BoldItalic'" font-size="26.416" transform="matrix(1 0 0 1 16.6914 337.3979)">Loads:</text><text fill="#FFF" font-family="'Lato-Italic'" font-size="26.416" transform="matrix(1 0 0 1 16.6914 369.0972)">-a template</text><text fill="#FFF" font-family="'Lato-Italic'" font-size="26.416" transform="matrix(1 0 0 1 16.6914 400.7998)">-a model</text><rect width="156.2" height="102.1" x="16" y="483.2" fill="none"/><text fill="#FFF" font-family="'Lato-BoldItalic'" font-size="26.416" transform="matrix(1 0 0 1 15.9653 502.7784)">Persists to:</text><text fill="#FFF" font-family="'Lato-Italic'" font-size="26.416" transform="matrix(1 0 0 1 15.9653 534.4717)">-web server</text><rect width="156.2" height="145.5" x="16" y="593.5" fill="none"/><text fill="#FFF" font-family="'Lato-BoldItalic'" font-size="26.416" transform="matrix(1 0 0 1 15.9653 613.0811)">Loads:</text><text fill="#FFF" font-family="'Lato-Italic'" font-size="26.416" transform="matrix(1 0 0 1 15.9653 644.7842)">-components</text><text fill="#FFF" font-family="'Lato-BoldItalic'" font-size="26.416" transform="matrix(1 0 0 1 15.9653 687.0537)">Accesses:</text><text fill="#FFF" font-family="'Lato-Italic'" font-size="26.416" transform="matrix(1 0 0 1 15.9653 718.7529)">-model data</text><g><line x1="258.4" x2="258.4" y1="724.7" y2="794.4" fill="none"/><g><line x1="258.4" x2="258.4" y1="724.7" y2="787.5" fill="none" stroke="#010101" stroke-miterlimit="10" stroke-width=".75"/><g><polygon fill="#010101" points="266.3 786.5 250.3 786.5 258.4 794.4"/></g></g></g><g><line x1="258.4" x2="258.4" y1="134.6" y2="172.6" fill="none"/><g><line x1="258.4" x2="258.4" y1="134.6" y2="165.6" fill="none" stroke="#010101" stroke-miterlimit="10" stroke-width=".75"/><g><polygon fill="#010101" points="266.3 164.5 250.3 164.5 258.4 172.6"/></g></g></g><g><line x1="403.5" x2="472.5" y1="724.8" y2="793.7" fill="none"/><g><line x1="403.5" x2="467.6" y1="724.8" y2="788.9" fill="none" stroke="#010101" stroke-miterlimit="10" stroke-width=".75"/><g><polygon fill="#010101" points="472.5 782.4 461.2 793.7 472.5 793.7"/></g></g></g><g><line x1="433" x2="786.2" y1="725.2" y2="789" fill="none"/><g><line x1="433" x2="779.4" y1="725.2" y2="787.7" fill="none" stroke="#010101" stroke-miterlimit="10" stroke-width=".75"/><g><polygon fill="#010101" points="779.7 779.5 776.7 795.4 786.2 789"/></g></g></g><rect width="251.8" height="105.7" x="459.5" y="820.6" fill="none"/><text fill="#010101" font-family="'Lato-Bold'" font-size="27.45" transform="matrix(1 0 0 1 513.165 841.1191)">Component</text><text fill="#010101" font-family="'Lato-Italic'" font-size="18.491" transform="matrix(1 0 0 1 476.4854 867.54)">app/components/rental-tile.js</text><text fill="#010101" font-family="'Lato-Italic'" font-size="14.528" transform="matrix(1 0 0 1 476.4854 883.3818)">app/components/rental-tile.hbs</text><rect width="251.8" height="105.7" x="722.7" y="820.6" fill="none"/><text fill="#010101" font-family="'Lato-Bold'" font-size="27.45" transform="matrix(1 0 0 1 776.5312 841.1191)">Component</text><text fill="#010101" font-family="'Lato-Italic'" font-size="18.491" transform="matrix(1 0 0 1 739.8682 867.54)">app/components/rental-tile.js</text><text fill="#010101" font-family="'Lato-Italic'" font-size="14.528" transform="matrix(1 0 0 1 739.8682 883.3818)">app/components/rental-tile.hbs</text><rect width="251.8" height="105.7" x="196.2" y="820.6" fill="none"/><text fill="#010101" font-family="'Lato-Bold'" font-size="27.45" transform="matrix(1 0 0 1 250.0025 841.1191)">Component</text><text fill="#010101" font-family="'Lato-Italic'" font-size="18.491" transform="matrix(1 0 0 1 213.3321 867.54)">app/components/rental-tile.js</text><text fill="#010101" font-family="'Lato-Italic'" font-size="14.528" transform="matrix(1 0 0 1 213.3321 883.3818)">app/components/rental-tile.hbs</text><path fill="#FBF3EE" stroke="#181718" stroke-miterlimit="10" stroke-width=".75" d="M358.2,554.5"/><path fill="#FBF3EE" stroke="#181718" stroke-miterlimit="10" stroke-width=".75" d="M362.4,554.5"/><line x1="491.3" x2="490.3" y1="554.5" y2="554.5" fill="none" stroke="#181718" stroke-miterlimit="10" stroke-width=".75"/><g><ellipse cx="523.4" cy="539.8" fill="#FBF3EE" stroke="#242322" stroke-miterlimit="10" stroke-width=".75" rx="75.3" ry="13.9"/><polyline fill="#FBF3EE" stroke="#181718" stroke-miterlimit="10" stroke-width=".75" points="448 539.8 448 495.9 598.6 495.9 598.6 539.8"/><rect width="1.9" height="1.2" x="596.5" y="538.9" fill="#FBF3EE"/></g><ellipse cx="523.4" cy="495.9" fill="#FBF3EE" stroke="#2D2C2C" stroke-miterlimit="10" stroke-width=".75" rx="75.3" ry="13.9"/><rect width="150.4" height="27.5" x="448" y="521.5" fill="none"/><text fill="#010101" font-family="'Lato-Regular'" font-size="26.416" transform="matrix(1 0 0 1 485.9438 540.8926)">Model</text></svg>